# xmcd CD database file
#
# Track frame offsets:
#	150
#	22001
#	41282
#	63083
#
# Disc length: 1096 seconds
#
# Revision: 5
# Processed by: cddbd v1.5.2PL0 Copyright (c) Steve Scherf et al.
# Submitted via: CDex 1.70beta3
#
DISCID=27044604
DTITLE=明日葉(CV:田村ゆかり)／直哉(CV:佐藤利奈) - 「アスタロッテのおもちゃ!」キャラクターソングCD Vol.2
DYEAR=2011
DGENRE=Anime
TTITLE0=塔原明日葉(CV:田村ゆかり) - 大胆♪Girl
TTITLE1=塔原直哉(CV:佐藤利奈) - 1mmスカイライン
TTITLE2=大胆♪Girl (Instrumental)
TTITLE3=1mmスカイライン (Instrumental)
EXTD=YEAR: 2011
EXTT0=
EXTT1=
EXTT2=
EXTT3=
PLAYORDER=
